<svg width="86" height="30" viewBox="0 0 86 30" fill="none" xmlns="http://www.w3.org/2000/svg">
<g filter="url(#filter0_b_1_38)">
<path d="M0.157315 11V0.818182H4.40305C5.16536 0.818182 5.80339 0.925899 6.31712 1.14133C6.83416 1.35677 7.22195 1.65838 7.48047 2.04616C7.74231 2.43395 7.87322 2.88305 7.87322 3.39347C7.87322 3.78125 7.79202 4.1276 7.62962 4.43253C7.46721 4.73414 7.24349 4.98437 6.95845 5.18324C6.67341 5.3821 6.34363 5.52131 5.96911 5.60085V5.70028C6.38009 5.72017 6.75959 5.8312 7.1076 6.03338C7.45893 6.23556 7.74065 6.51728 7.95277 6.87855C8.16489 7.23651 8.27095 7.66075 8.27095 8.15128C8.27095 8.69815 8.13175 9.18703 7.85334 9.6179C7.57493 10.0455 7.17223 10.3835 6.64524 10.6321C6.11825 10.8774 5.47857 11 4.72621 11H0.157315ZM2.61825 9.01634H4.13956C4.67318 9.01634 5.06593 8.91525 5.31783 8.71307C5.57304 8.51089 5.70064 8.22917 5.70064 7.8679C5.70064 7.60606 5.63932 7.38068 5.51669 7.19176C5.39406 6.99953 5.22005 6.85204 4.99467 6.74929C4.76929 6.64323 4.49917 6.5902 4.1843 6.5902H2.61825V9.01634ZM2.61825 5.00426H3.98047C4.24893 5.00426 4.48757 4.95952 4.69638 4.87003C4.90518 4.78054 5.06759 4.65128 5.18359 4.48224C5.30291 4.31321 5.36257 4.10937 5.36257 3.87074C5.36257 3.52936 5.2416 3.26089 4.99965 3.06534C4.75769 2.86979 4.43123 2.77202 4.02024 2.77202H2.61825V5.00426ZM11.9151 0.818182V11H9.45419V0.818182H11.9151ZM13.46 11V0.818182H15.921V9.00142H20.1568V11H13.46ZM21.4308 11V0.818182H23.8917V9.00142H28.1275V11H21.4308ZM31.8624 0.818182V11H29.4015V0.818182H31.8624ZM43.0174 5.90909C43.0174 7.02936 42.802 7.97893 42.3711 8.75781C41.9402 9.5367 41.3569 10.1283 40.6211 10.5327C39.8886 10.937 39.0666 11.1392 38.1552 11.1392C37.2404 11.1392 36.4168 10.9354 35.6843 10.5277C34.9518 10.12 34.3701 9.52841 33.9393 8.75284C33.5117 7.97396 33.2979 7.02604 33.2979 5.90909C33.2979 4.78883 33.5117 3.83925 33.9393 3.06037C34.3701 2.28149 34.9518 1.68987 35.6843 1.28551C36.4168 0.881155 37.2404 0.678977 38.1552 0.678977C39.0666 0.678977 39.8886 0.881155 40.6211 1.28551C41.3569 1.68987 41.9402 2.28149 42.3711 3.06037C42.802 3.83925 43.0174 4.78883 43.0174 5.90909ZM40.5018 5.90909C40.5018 5.24621 40.4073 4.68608 40.2184 4.22869C40.0328 3.77131 39.7643 3.42495 39.413 3.18963C39.065 2.95431 38.6457 2.83665 38.1552 2.83665C37.668 2.83665 37.2487 2.95431 36.8974 3.18963C36.546 3.42495 36.2759 3.77131 36.087 4.22869C35.9014 4.68608 35.8086 5.24621 35.8086 5.90909C35.8086 6.57197 35.9014 7.1321 36.087 7.58949C36.2759 8.04687 36.546 8.39323 36.8974 8.62855C37.2487 8.86387 37.668 8.98153 38.1552 8.98153C38.6457 8.98153 39.065 8.86387 39.413 8.62855C39.7643 8.39323 40.0328 8.04687 40.2184 7.58949C40.4073 7.1321 40.5018 6.57197 40.5018 5.90909ZM53.1197 0.818182V11H51.0316L46.9798 5.12358H46.9151V11H44.4542V0.818182H46.5721L50.5792 6.68466H50.6637V0.818182H53.1197ZM56.8695 11H54.2246L57.66 0.818182H60.9363L64.3716 11H61.7267L59.3354 3.38352H59.2559L56.8695 11ZM56.5165 6.9929H62.0449V8.86222H56.5165V6.9929ZM67.9288 0.818182V11H65.4679V0.818182H67.9288ZM69.4737 11V0.818182H73.6797C74.442 0.818182 75.0999 0.955729 75.6534 1.23082C76.2102 1.5026 76.6394 1.8937 76.9411 2.40412C77.2427 2.91122 77.3935 3.51278 77.3935 4.20881C77.3935 4.91477 77.2393 5.51468 76.9311 6.00852C76.6229 6.49905 76.1854 6.87358 75.6186 7.1321C75.0518 7.38731 74.3807 7.51491 73.6051 7.51491H70.9453V5.57599H73.1477C73.5189 5.57599 73.8288 5.52794 74.0774 5.43182C74.3293 5.33239 74.5199 5.18324 74.6491 4.98438C74.7784 4.7822 74.843 4.52367 74.843 4.20881C74.843 3.89394 74.7784 3.63376 74.6491 3.42827C74.5199 3.21946 74.3293 3.06368 74.0774 2.96094C73.8255 2.85488 73.5156 2.80185 73.1477 2.80185H71.9347V11H69.4737ZM75.206 6.34659L77.7415 11H75.0568L72.571 6.34659H75.206ZM78.7433 11V0.818182H85.8427V2.81676H81.2042V4.90483H85.4798V6.90838H81.2042V9.00142H85.8427V11H78.7433Z" fill="#D9D9D9"/>
<path d="M22.2558 30H18.9596V19.8182H22.3602C23.3578 19.8182 24.2146 20.022 24.9305 20.4297C25.6464 20.834 26.1949 21.4157 26.5761 22.1747C26.9606 22.9304 27.1528 23.8369 27.1528 24.8942C27.1528 25.9548 26.9589 26.8662 26.5711 27.6286C26.1867 28.3909 25.6298 28.9775 24.9007 29.3885C24.1715 29.7962 23.2899 30 22.2558 30ZM20.4958 28.6577H22.1713C22.9468 28.6577 23.5915 28.5118 24.1052 28.2202C24.619 27.9252 25.0034 27.4993 25.2586 26.9425C25.5138 26.3823 25.6414 25.6996 25.6414 24.8942C25.6414 24.0954 25.5138 23.4176 25.2586 22.8608C25.0067 22.304 24.6306 21.8814 24.1301 21.593C23.6296 21.3047 23.0082 21.1605 22.2657 21.1605H20.4958V28.6577ZM32.6994 19.8182V30H31.1631V19.8182H32.6994ZM37.8967 30H36.266L39.93 19.8182H41.7049L45.369 30H43.7383L40.8597 21.6676H40.7802L37.8967 30ZM38.1701 26.0128H43.4599V27.3054H38.1701V26.0128ZM48.9393 30V19.8182H52.5686C53.3574 19.8182 54.012 19.9541 54.5323 20.2259C55.056 20.4976 55.4471 20.8738 55.7056 21.3544C55.9642 21.8317 56.0934 22.3835 56.0934 23.0099C56.0934 23.633 55.9625 24.1816 55.7007 24.6555C55.4422 25.1262 55.0511 25.4924 54.5274 25.7543C54.007 26.0161 53.3524 26.147 52.5636 26.147H49.8143V24.8246H52.4244C52.9216 24.8246 53.3259 24.7533 53.6375 24.6108C53.9523 24.4683 54.1827 24.2611 54.3285 23.9893C54.4743 23.7176 54.5473 23.3911 54.5473 23.0099C54.5473 22.6255 54.4727 22.2924 54.3235 22.0107C54.1777 21.7289 53.9474 21.5135 53.6325 21.3643C53.3209 21.2119 52.9116 21.1357 52.4045 21.1357H50.4755V30H48.9393ZM53.9656 25.4062L56.4812 30H54.7312L52.2653 25.4062H53.9656ZM58.9081 19.8182H60.6531L63.3129 24.4467H63.4223L66.0821 19.8182H67.8271L64.1332 26.0028V30H62.602V26.0028L58.9081 19.8182Z" fill="#D9D9D9" fill-opacity="0.8"/>
</g>
<defs>
<filter id="filter0_b_1_38" x="-9.84268" y="-9.32103" width="105.685" height="49.321" filterUnits="userSpaceOnUse" color-interpolation-filters="sRGB">
<feFlood flood-opacity="0" result="BackgroundImageFix"/>
<feGaussianBlur in="BackgroundImageFix" stdDeviation="5"/>
<feComposite in2="SourceAlpha" operator="in" result="effect1_backgroundBlur_1_38"/>
<feBlend mode="normal" in="SourceGraphic" in2="effect1_backgroundBlur_1_38" result="shape"/>
</filter>
</defs>
</svg>
