<svg width="124" height="7" viewBox="0 0 124 7" fill="none" xmlns="http://www.w3.org/2000/svg">
<path d="M118.333 3.5C118.333 4.97276 119.527 6.16667 121 6.16667C122.473 6.16667 123.667 4.97276 123.667 3.5C123.667 2.02724 122.473 0.833333 121 0.833333C119.527 0.833333 118.333 2.02724 118.333 3.5ZM3 4H121V3H3V4Z" fill="#D9D9D9"/>
<path d="M0.333536 3.59932C0.339235 5.07206 1.53775 6.26134 3.0105 6.25564C4.48325 6.24994 5.67253 5.05143 5.66683 3.57868C5.66113 2.10593 4.46261 0.916652 2.98986 0.92235C1.51712 0.928049 0.327838 2.12657 0.333536 3.59932ZM3.00212 4.08899L49.0018 3.911L48.9979 2.91101L2.99825 3.089L3.00212 4.08899Z" fill="#D9D9D9"/>
</svg>
